<?xml version="1.0" encoding="utf-8"?>
<!-- Generator: Adobe Illustrator 16.0.4, SVG Export Plug-In . SVG Version: 6.00 Build 0)  -->
<!DOCTYPE svg PUBLIC "-//W3C//DTD SVG 1.1//EN" "http://www.w3.org/Graphics/SVG/1.1/DTD/svg11.dtd">
<svg version="1.1" id="Layer_1" xmlns="http://www.w3.org/2000/svg" xmlns:xlink="http://www.w3.org/1999/xlink" x="0px" y="0px"
	 width="68px" height="68px" viewBox="0 0 68 68" enable-background="new 0 0 68 68" xml:space="preserve">
<rect x="10.509" y="11.979" fill="#D24D57" width="46.857" height="44.177"/>
<path fill="#FFFFFF" d="M34,0C15.223,0,0,15.223,0,34c0,18.777,15.223,34,34,34c18.777,0,34-15.223,34-34C68,15.223,52.777,0,34,0z
	 M49.034,36.618c-0.681,0.419-0.95-0.285-0.95-0.285c-0.785-1.626-2.566-1.325-3.971,1.095c0,0-9.219,16.051-9.495,16.494
	c-0.276,0.447-1.85-0.141-1.863-0.732c-0.011-0.488,0.494-1.342,0.494-1.342l4.5-7.813h-3.773l-1.621,2.831
	c-7.226,12.504-19.659,5.354-16.197-2.324l0.231-0.5c0,0,0.708-1.423,1.522-0.229c0.814,1.193,0.252,1.771-0.061,2.586
	c-1.92,4.979,7.021,9.076,12.616-0.646l5.104-8.854c-2.709,1.379-7.016,1.451-8.178,3.461c-0.277,0.474-0.702,1.104-0.626,2.627
	c0,0-0.005,0.554-0.263,0.802c-0.372,0.356-0.591,0.292-0.787,0.208c-0.198-0.085-0.3-0.188-0.3-0.188
	c-0.898-0.988-1.061-2.441-0.06-4.25h-0.002l0.025-0.045c0.01-0.018,0.018-0.033,0.028-0.052c0.008-0.015,0.017-0.024,0.024-0.039
	l12.428-21.508c0,0,0.375-0.772,1.268-0.742c1.787,0.062,1.249,0.742,1.249,0.742l-4.524,7.863c1.621,1.862,5.203,1.718,7.188-1.742
	c4.451-7.694-5.396-11.614-9.146-5.009c-0.896,1.597-0.923,2.395-0.923,2.395s-0.069,1.259-1.189,0.951
	c-0.621-0.171-0.528-1.218-0.528-1.218s-0.045-1.305,0.972-3.071c4.983-8.638,18.194-2.564,12.872,6.702
	c-2.808,4.888-7.693,4.476-9.896,2.08l-5.748,9.956l-0.001,0.002c2.43-0.705,5.396-1.12,7.981-3.17c0,0,1.326-1.187,1.916,0.465
	c0.203,0.572-0.635,1.736-0.635,1.736l-4.04,6.969h3.774l3.58-6.17c2.951-5.081,6.992-3.218,7.525-1.188
	C49.557,35.467,49.641,36.244,49.034,36.618z"/>
</svg>
